<?xml version="1.0" encoding="UTF-8"?>
<svg width="24px" height="24px" viewBox="0 0 24 24" version="1.1" xmlns="http://www.w3.org/2000/svg" xmlns:xlink="http://www.w3.org/1999/xlink">
    <!-- Generator: Sketch 49.1 (51147) - http://www.bohemiancoding.com/sketch -->
    <title>Icons/24/Propiedades/ic_apartamento</title>
    <desc>Created with Sketch.</desc>
    <defs>
        <polygon id="path-1" points="0 20 16 20 16 0 0 0"></polygon>
    </defs>
    <g id="Icons/24/Propiedades/ic_apartamento" stroke="none" stroke-width="1" fill="none" fill-rule="evenodd">
        <g id="Page-1" transform="translate(4.000000, 2.000000)">
            <path d="M3,12.6315789 L4,12.6315789 L4,11.5789474 L3,11.5789474 L3,12.6315789 Z M2,13.6842105 L5,13.6842105 L5,10.5263158 L2,10.5263158 L2,13.6842105 Z" id="Fill-1" fill="#FFFFFF"></path>
            <g id="Group-11">
                <path d="M13,17.8947368 C13.276,17.8947368 13.5,17.6589474 13.5,17.3684211 L13.5,7.89473684 C13.5,7.60421053 13.276,7.36842105 13,7.36842105 C12.724,7.36842105 12.5,7.60421053 12.5,7.89473684 L12.5,17.3684211 C12.5,17.6589474 12.724,17.8947368 13,17.8947368" id="Fill-2" fill="#FFFFFF"></path>
                <mask id="mask-2" fill="white">
                    <use xlink:href="#path-1"></use>
                </mask>
                <g id="Clip-5"></g>
                <path d="M11,18.9473684 L15,18.9473684 L15,6.31578947 L11,6.31578947 L11,18.9473684 Z M10,5.26315789 L10,18.9473684 L7,18.9473684 L7,14.7368421 L4,14.7368421 L4,18.9473684 L1,18.9473684 L1,1.05263158 L10,1.05263158 L10,5.26315789 Z M5,18.9473684 L6,18.9473684 L6,15.7894737 L5,15.7894737 L5,18.9473684 Z M11,5.26315789 L11,0 L0,0 L0,20 L4,20 L7,20 L10,20 L11,20 L16,20 L16,5.26315789 L11,5.26315789 Z" id="Fill-4" fill="#FFFFFF" mask="url(#mask-2)"></path>
                <path d="M7,8.42105263 L8,8.42105263 L8,7.36842105 L7,7.36842105 L7,8.42105263 Z M6,9.47368421 L9,9.47368421 L9,6.31578947 L6,6.31578947 L6,9.47368421 Z" id="Fill-6" fill="#FFFFFF" mask="url(#mask-2)"></path>
                <path d="M3,8.42105263 L4,8.42105263 L4,7.36842105 L3,7.36842105 L3,8.42105263 Z M2,9.47368421 L5,9.47368421 L5,6.31578947 L2,6.31578947 L2,9.47368421 Z" id="Fill-7" fill="#FFFFFF" mask="url(#mask-2)"></path>
                <path d="M7,4.21052632 L8,4.21052632 L8,3.15789474 L7,3.15789474 L7,4.21052632 Z M6,5.26315789 L9,5.26315789 L9,2.10526316 L6,2.10526316 L6,5.26315789 Z" id="Fill-8" fill="#FFFFFF" mask="url(#mask-2)"></path>
                <path d="M7,12.6315789 L8,12.6315789 L8,11.5789474 L7,11.5789474 L7,12.6315789 Z M6,13.6842105 L9,13.6842105 L9,10.5263158 L6,10.5263158 L6,13.6842105 Z" id="Fill-9" fill="#FFFFFF" mask="url(#mask-2)"></path>
                <path d="M3,4.21052632 L4,4.21052632 L4,3.15789474 L3,3.15789474 L3,4.21052632 Z M2,5.26315789 L5,5.26315789 L5,2.10526316 L2,2.10526316 L2,5.26315789 Z" id="Fill-10" fill="#FFFFFF" mask="url(#mask-2)"></path>
            </g>
        </g>
    </g>
</svg>