<?xml version="1.0" encoding="UTF-8"?>
<svg width="24px" height="24px" viewBox="0 0 24 24" version="1.1" xmlns="http://www.w3.org/2000/svg" xmlns:xlink="http://www.w3.org/1999/xlink">
    <!-- Generator: Sketch 49.1 (51147) - http://www.bohemiancoding.com/sketch -->
    <title>Icons/24/Propiedades/ic_bathroom</title>
    <desc>Created with Sketch.</desc>
    <defs>
        <polygon id="path-1" points="0 9.52380952e-05 20 9.52380952e-05 20 19.5236238 0 19.5236238"></polygon>
    </defs>
    <g id="Icons/24/Propiedades/ic_bathroom" stroke="none" stroke-width="1" fill="none" fill-rule="evenodd">
        <g id="Page-1" transform="translate(2.000000, 2.000000)">
            <mask id="mask-2" fill="white">
                <use xlink:href="#path-1"></use>
            </mask>
            <g id="Clip-2"></g>
            <path d="M19.047619,10.952381 C19.047619,11.2152381 18.8342857,11.4285714 18.5714286,11.4285714 L1.42857143,11.4285714 C1.16571429,11.4285714 0.952380952,11.2152381 0.952380952,10.952381 C0.952380952,10.6895238 1.16571429,10.4761905 1.42857143,10.4761905 L18.5714286,10.4761905 C18.8342857,10.4761905 19.047619,10.6895238 19.047619,10.952381 Z M17.547619,15.1533333 C17.3561905,16.3009524 16.3628571,17.1428571 15.1990476,17.1428571 L4.80095238,17.1428571 C3.63714286,17.1428571 2.64380952,16.3009524 2.45238095,15.1533333 L1.99047619,12.3809524 L18.0095238,12.3809524 L17.547619,15.1533333 Z M13.3371429,2.34285714 C12.487619,2.50952381 11.747619,3.1047619 11.452381,3.98571429 C11.3695238,4.23428571 11.5047619,4.50380952 11.7542857,4.58761905 C12.0038095,4.67142857 12.2733333,4.53714286 12.3580952,4.2847619 C12.6257143,3.48190476 13.492381,3.04952381 14.2952381,3.31714286 C14.7514286,3.47047619 15.1104762,3.82952381 15.2619048,4.28666667 C15.3447619,4.53619048 15.6152381,4.67047619 15.8647619,4.58761905 C16.1142857,4.5047619 16.2495238,4.2352381 16.1666667,3.98666667 C15.92,3.24380952 15.3371429,2.66190476 14.5961905,2.41428571 C14.4952381,2.38 14.3914286,2.3647619 14.2895238,2.3447619 C14.3085714,1.57238095 14.9380952,0.952380952 15.7142857,0.952380952 C16.5028571,0.952380952 17.1428571,1.59238095 17.1428571,2.38095238 L17.1428571,9.52380952 L1.42857143,9.52380952 C0.64,9.52380952 0,10.1638095 0,10.952381 C0,11.5961905 0.428571429,12.1333333 1.01333333,12.312381 L1.51333333,15.3095238 C1.70095238,16.4361905 2.4447619,17.34 3.43142857,17.787619 L2.90761905,18.8342857 C2.79047619,19.0695238 2.8847619,19.3561905 3.12,19.4733333 C3.3552381,19.5904762 3.64190476,19.4961905 3.75904762,19.2609524 L4.36190476,18.0561905 C4.50666667,18.0752381 4.65142857,18.0952381 4.80095238,18.0952381 L15.1990476,18.0952381 C15.3485714,18.0952381 15.4933333,18.0752381 15.6380952,18.0561905 L16.2409524,19.2609524 C16.3580952,19.4961905 16.6447619,19.5904762 16.88,19.4733333 C17.1152381,19.3561905 17.2095238,19.0695238 17.092381,18.8342857 L16.5685714,17.787619 C17.5552381,17.34 18.2990476,16.4361905 18.4866667,15.3095238 L18.9866667,12.312381 C19.5714286,12.1333333 20,11.5961905 20,10.952381 C20,10.1638095 19.36,9.52380952 18.5714286,9.52380952 L18.0952381,9.52380952 L18.0952381,2.38095238 C18.0952381,1.06571429 17.0295238,0 15.7142857,0 C14.412381,0 13.3580952,1.04571429 13.3371429,2.34285714 Z" id="Fill-1" fill="#FFFFFF" mask="url(#mask-2)"></path>
        </g>
    </g>
</svg>