<?xml version="1.0" encoding="UTF-8"?>
<svg width="24px" height="24px" viewBox="0 0 24 24" version="1.1" xmlns="http://www.w3.org/2000/svg" xmlns:xlink="http://www.w3.org/1999/xlink">
    <!-- Generator: Sketch 49.1 (51147) - http://www.bohemiancoding.com/sketch -->
    <title>Icons/24/Propiedades/ic_casa</title>
    <desc>Created with Sketch.</desc>
    <defs>
        <polygon id="path-1" points="0 0.0005 20 0.0005 20 17.1635 0 17.1635"></polygon>
    </defs>
    <g id="Icons/24/Propiedades/ic_casa" stroke="none" stroke-width="1" fill="none" fill-rule="evenodd">
        <g id="Page-1" transform="translate(2.000000, 3.000000)">
            <mask id="mask-2" fill="white">
                <use xlink:href="#path-1"></use>
            </mask>
            <g id="Clip-2"></g>
            <path d="M16.6666667,16.1635 L12.8571429,16.1635 L12.8571429,13.1635 C12.8571429,11.5065 11.5780952,10.1635 10,10.1635 C8.42190476,10.1635 7.14285714,11.5065 7.14285714,13.1635 L7.14285714,16.1635 L3.33333333,16.1635 L3.33333333,7.4325 L3.57142857,7.2145 L3.57142857,7.2205 L5.32095238,5.6115 L10.0019048,1.3265 L11.0666667,2.3025 L16.6666667,7.4315 L16.6666667,16.1635 Z M8.0952381,16.1635 L8.0952381,13.1635 C8.0952381,12.0595 8.94857143,11.1635 10,11.1635 C11.0514286,11.1635 11.9047619,12.0595 11.9047619,13.1635 L11.9047619,16.1635 L8.0952381,16.1635 Z M4.52380952,1.9135 C4.52380952,1.4995 4.84380952,1.1635 5.23809524,1.1635 C5.63238095,1.1635 5.95238095,1.4995 5.95238095,1.9135 L5.95238095,3.7025 L5.1352381,4.4545 L4.52380952,5.0135 L4.52380952,1.9135 Z M5.23809524,0.1635 C4.31714286,0.1635 3.57142857,0.9465 3.57142857,1.9135 L3.57142857,5.8855 L2.38095238,6.9745 L2.38095238,6.9765 L0.163809524,9.0075 C-0.0352380952,9.1885 -0.0561904762,9.5045 0.117142857,9.7125 C0.29047619,9.9205 0.59047619,9.9415 0.788571429,9.7615 L2.38095238,8.3035 L2.38095238,17.1635 L7.14285714,17.1635 L12.8571429,17.1635 L17.6190476,17.1635 L17.6190476,8.3035 L19.2104762,9.7615 C19.4095238,9.9415 19.7095238,9.9205 19.8828571,9.7125 C20.0561905,9.5045 20.0352381,9.1885 19.8371429,9.0075 L17.6190476,6.9755 L17.6190476,6.9745 L11.687619,1.5435 L10.0019048,0.0005 L6.9047619,2.8345 L6.9047619,1.9135 C6.9047619,0.9465 6.15904762,0.1635 5.23809524,0.1635 Z" id="Fill-1" fill="#FFFFFF" mask="url(#mask-2)"></path>
        </g>
    </g>
</svg>