<?xml version="1.0" encoding="UTF-8"?>
<svg width="20px" height="20px" viewBox="0 0 20 20" version="1.1" xmlns="http://www.w3.org/2000/svg" xmlns:xlink="http://www.w3.org/1999/xlink">
    <!-- Generator: Sketch 49.2 (51160) - http://www.bohemiancoding.com/sketch -->
    <title>Icons/24/Propiedades/ic_edificio</title>
    <desc>Created with Sketch.</desc>
    <defs>
        <path d="M5.15757895,2.00028571 L5.15757895,4.85742857 L6.21021053,4.85742857 L6.21021053,6.7612381 L1.99968421,6.7612381 L1.99968421,9.61933333 L3.05231579,9.61933333 L3.05231579,22.0002857 L6.21021053,22.0002857 L7.26389474,22.0002857 L9.36915789,22.0002857 L14.6312632,22.0002857 L16.7375789,22.0002857 L17.7902105,22.0002857 L20.9470526,22.0002857 L20.9470526,9.61933333 L21.9996842,9.61933333 L21.9996842,6.7612381 L17.7902105,6.7612381 L17.7902105,4.85742857 L18.8428421,4.85742857 L18.8428421,2.00028571 L5.15757895,2.00028571 Z M6.21021053,3.90504762 L17.7902105,3.90504762 L17.7902105,2.95266667 L6.21021053,2.95266667 L6.21021053,3.90504762 Z M7.26389474,9.61933333 L7.26389474,8.666 L7.26389474,6.7612381 L7.26389474,4.85742857 L16.7375789,4.85742857 L16.7375789,6.7612381 L16.7375789,8.666 L16.7375789,9.61933333 L16.7375789,21.0479048 L14.6312632,21.0479048 L14.6312632,17.2374286 L9.36915789,17.2374286 L9.36915789,21.0479048 L7.26389474,21.0479048 L7.26389474,9.61933333 Z M17.7902105,8.666 L20.9481053,8.666 L20.9481053,7.71361905 L17.7902105,7.71361905 L17.7902105,8.666 Z M3.05231579,8.666 L6.21021053,8.666 L6.21021053,7.71361905 L3.05231579,7.71361905 L3.05231579,8.666 Z M17.7902105,21.0479048 L19.8954737,21.0479048 L19.8954737,9.61933333 L17.7902105,9.61933333 L17.7902105,21.0479048 Z M4.10494737,21.0479048 L6.21021053,21.0479048 L6.21021053,9.61933333 L4.10494737,9.61933333 L4.10494737,21.0479048 Z M10.4207368,21.0479048 L13.5786316,21.0479048 L13.5786316,18.1907619 L10.4207368,18.1907619 L10.4207368,21.0479048 Z M13.5789474,9.61904762 L14.6315789,9.61904762 L14.6315789,6.76190476 L13.5789474,6.76190476 L13.5789474,9.61904762 Z M12.5263158,10.5714286 L15.6842105,10.5714286 L15.6842105,5.80952381 L12.5263158,5.80952381 L12.5263158,10.5714286 Z M13.5789474,15.3333333 L14.6315789,15.3333333 L14.6315789,12.4761905 L13.5789474,12.4761905 L13.5789474,15.3333333 Z M12.5263158,16.2857143 L15.6842105,16.2857143 L15.6842105,11.5238095 L12.5263158,11.5238095 L12.5263158,16.2857143 Z M9.36842105,15.3333333 L10.4210526,15.3333333 L10.4210526,12.4761905 L9.36842105,12.4761905 L9.36842105,15.3333333 Z M8.31578947,16.2857143 L11.4736842,16.2857143 L11.4736842,11.5238095 L8.31578947,11.5238095 L8.31578947,16.2857143 Z M9.36842105,9.61904762 L10.4210526,9.61904762 L10.4210526,6.76190476 L9.36842105,6.76190476 L9.36842105,9.61904762 Z M8.31578947,10.5714286 L11.4736842,10.5714286 L11.4736842,5.80952381 L8.31578947,5.80952381 L8.31578947,10.5714286 Z" id="path-1"></path>
    </defs>
    <g id="Desktop" stroke="none" stroke-width="1" fill="none" fill-rule="evenodd">
        <g id="03.05_Detalle-de-propiedad-configuraciones" transform="translate(-138.000000, -924.000000)">
            <g id="Carateristicas" transform="translate(128.000000, 854.000000)">
                <g id="Terreno-Copy-3" transform="translate(0.000000, 64.000000)">
                    <g id="Icons/24/Propiedades/ic_edificio" transform="translate(8.000000, 4.000000)">
                        <mask id="mask-2" fill="white">
                            <use xlink:href="#path-1"></use>
                        </mask>
                        <g id="Combined-Shape"></g>
                        <g id="Colors/Darker" mask="url(#mask-2)" fill="#404041" fill-rule="evenodd">
                            <rect id="color" x="0" y="0" width="24" height="24"></rect>
                        </g>
                    </g>
                </g>
            </g>
        </g>
    </g>
</svg>