<?xml version="1.0" encoding="UTF-8"?>
<svg width="24px" height="24px" viewBox="0 0 24 24" version="1.1" xmlns="http://www.w3.org/2000/svg" xmlns:xlink="http://www.w3.org/1999/xlink">
    <!-- Generator: Sketch 49.1 (51147) - http://www.bohemiancoding.com/sketch -->
    <title>Icons/24/Propiedades/ic_edificio</title>
    <desc>Created with Sketch.</desc>
    <defs></defs>
    <g id="Icons/24/Propiedades/ic_edificio" stroke="none" stroke-width="1" fill="none" fill-rule="evenodd">
        <g id="Page-1" transform="translate(2.000000, 2.000000)" fill="#FFFFFF">
            <path d="M3.15757895,0.000285714286 L3.15757895,2.85742857 L4.21021053,2.85742857 L4.21021053,4.7612381 L-0.000315789474,4.7612381 L-0.000315789474,7.61933333 L1.05231579,7.61933333 L1.05231579,20.0002857 L4.21021053,20.0002857 L5.26389474,20.0002857 L7.36915789,20.0002857 L12.6312632,20.0002857 L14.7375789,20.0002857 L15.7902105,20.0002857 L18.9470526,20.0002857 L18.9470526,7.61933333 L19.9996842,7.61933333 L19.9996842,4.7612381 L15.7902105,4.7612381 L15.7902105,2.85742857 L16.8428421,2.85742857 L16.8428421,0.000285714286 L3.15757895,0.000285714286 Z M4.21021053,1.90504762 L15.7902105,1.90504762 L15.7902105,0.952666667 L4.21021053,0.952666667 L4.21021053,1.90504762 Z M5.26389474,7.61933333 L5.26389474,6.666 L5.26389474,4.7612381 L5.26389474,2.85742857 L14.7375789,2.85742857 L14.7375789,4.7612381 L14.7375789,6.666 L14.7375789,7.61933333 L14.7375789,19.0479048 L12.6312632,19.0479048 L12.6312632,15.2374286 L7.36915789,15.2374286 L7.36915789,19.0479048 L5.26389474,19.0479048 L5.26389474,7.61933333 Z M15.7902105,6.666 L18.9481053,6.666 L18.9481053,5.71361905 L15.7902105,5.71361905 L15.7902105,6.666 Z M1.05231579,6.666 L4.21021053,6.666 L4.21021053,5.71361905 L1.05231579,5.71361905 L1.05231579,6.666 Z M15.7902105,19.0479048 L17.8954737,19.0479048 L17.8954737,7.61933333 L15.7902105,7.61933333 L15.7902105,19.0479048 Z M2.10494737,19.0479048 L4.21021053,19.0479048 L4.21021053,7.61933333 L2.10494737,7.61933333 L2.10494737,19.0479048 Z M8.42073684,19.0479048 L11.5786316,19.0479048 L11.5786316,16.1907619 L8.42073684,16.1907619 L8.42073684,19.0479048 Z" id="Fill-1"></path>
            <path d="M11.5789474,7.61904762 L12.6315789,7.61904762 L12.6315789,4.76190476 L11.5789474,4.76190476 L11.5789474,7.61904762 Z M10.5263158,8.57142857 L13.6842105,8.57142857 L13.6842105,3.80952381 L10.5263158,3.80952381 L10.5263158,8.57142857 Z" id="Fill-2"></path>
            <path d="M11.5789474,13.3333333 L12.6315789,13.3333333 L12.6315789,10.4761905 L11.5789474,10.4761905 L11.5789474,13.3333333 Z M10.5263158,14.2857143 L13.6842105,14.2857143 L13.6842105,9.52380952 L10.5263158,9.52380952 L10.5263158,14.2857143 Z" id="Fill-3"></path>
            <path d="M7.36842105,13.3333333 L8.42105263,13.3333333 L8.42105263,10.4761905 L7.36842105,10.4761905 L7.36842105,13.3333333 Z M6.31578947,14.2857143 L9.47368421,14.2857143 L9.47368421,9.52380952 L6.31578947,9.52380952 L6.31578947,14.2857143 Z" id="Fill-4"></path>
            <path d="M7.36842105,7.61904762 L8.42105263,7.61904762 L8.42105263,4.76190476 L7.36842105,4.76190476 L7.36842105,7.61904762 Z M6.31578947,8.57142857 L9.47368421,8.57142857 L9.47368421,3.80952381 L6.31578947,3.80952381 L6.31578947,8.57142857 Z" id="Fill-5"></path>
        </g>
    </g>
</svg>