<?xml version="1.0" encoding="UTF-8"?>
<svg width="24px" height="24px" viewBox="0 0 24 24" version="1.1" xmlns="http://www.w3.org/2000/svg" xmlns:xlink="http://www.w3.org/1999/xlink">
    <!-- Generator: Sketch 49.1 (51147) - http://www.bohemiancoding.com/sketch -->
    <title>Icons/24/Propiedades/ic_finca</title>
    <desc>Created with Sketch.</desc>
    <defs></defs>
    <g id="Icons/24/Propiedades/ic_finca" stroke="none" stroke-width="1" fill="none" fill-rule="evenodd">
        <path d="M18.6428233,4 L16.263856,5.24441123 L16.263856,9.04041348 L14.368072,9.04041348 L14.368072,5.24540756 L12.0118427,4 L9.631928,5.24441123 L9.631928,9.04041348 L7.73709143,9.04041348 L7.73709143,5.24540756 L5.37991473,4 L3,5.24441123 L3,20 L7.73709143,20 L7.73709143,16.0146958 L9.631928,16.0146958 L9.631928,20 L14.368072,20 L14.368072,16.0146958 L16.263856,16.0146958 L16.263856,20 L21,20 L21,5.24540756 L18.6428233,4 Z M17.2112743,16.0146958 L17.2112743,9.04041348 L17.2112743,5.86113706 L18.6399811,5.1128962 L20.0535291,5.86014073 L20.0535291,19.003674 L17.2112743,19.003674 L17.2112743,16.0146958 Z M10.5793463,16.0146958 L10.5793463,9.04041348 L10.5793463,5.86113706 L12.0080531,5.1128962 L13.4206537,5.86014073 L13.4206537,9.04041348 L13.4206537,16.0146958 L13.4206537,19.003674 L10.5793463,19.003674 L10.5793463,16.0146958 Z M3.94647087,5.86113706 L5.37707248,5.1128962 L6.78872572,5.86014073 L6.78872572,9.04041348 L6.78872572,16.0146958 L6.78872572,19.003674 L3.94647087,19.003674 L3.94647087,5.86113706 Z M14.368072,15.0173734 L16.263856,15.0173734 L16.263856,10.0367395 L14.368072,10.0367395 L14.368072,15.0173734 Z M7.73709143,15.0173734 L9.631928,15.0173734 L9.631928,10.0367395 L7.73709143,10.0367395 L7.73709143,15.0173734 Z" id="Page-1" fill="#FFFFFF"></path>
    </g>
</svg>