<?xml version="1.0" encoding="UTF-8"?>
<svg width="24px" height="24px" viewBox="0 0 24 24" version="1.1" xmlns="http://www.w3.org/2000/svg" xmlns:xlink="http://www.w3.org/1999/xlink">
    <!-- Generator: Sketch 49.1 (51147) - http://www.bohemiancoding.com/sketch -->
    <title>Icons/24/Propiedades/ic_local_comercial</title>
    <desc>Created with Sketch.</desc>
    <defs></defs>
    <g id="Icons/24/Propiedades/ic_local_comercial" stroke="none" stroke-width="1" fill="none" fill-rule="evenodd">
        <g id="Page-1" transform="translate(2.000000, 3.000000)" fill="#FFFFFF">
            <path d="M11.9997,-0.000105882353 L11.9997,5.29401176 L-0.0003,5.29401176 L-0.0003,9.52930588 L0.9997,9.52930588 L0.9997,17.9998941 L2.9997,17.9998941 L10.9997,17.9998941 L11.9997,17.9998941 L12.9997,17.9998941 L19.9997,17.9998941 L19.9997,-0.000105882353 L11.9997,-0.000105882353 Z M12.9997,9.52930588 L12.9997,8.47048235 L12.9997,5.29401176 L12.9997,1.05871765 L18.9997,1.05871765 L18.9997,16.9410706 L12.9997,16.9410706 L12.9997,9.52930588 Z M0.9997,8.47048235 L11.9997,8.47048235 L11.9997,6.35283529 L0.9997,6.35283529 L0.9997,8.47048235 Z M1.9997,9.52930588 L11.9997,9.52930588 L11.9997,16.9410706 L10.9997,16.9410706 L10.9997,15.8822471 L10.9997,12.7057765 L10.9997,10.5881294 L2.9997,10.5881294 L2.9997,12.7057765 L2.9997,15.8822471 L2.9997,16.9410706 L1.9997,16.9410706 L1.9997,9.52930588 Z M3.9997,12.7057765 L9.9997,12.7057765 L9.9997,11.6469529 L3.9997,11.6469529 L3.9997,12.7057765 Z M3.9997,14.8244824 L9.9997,14.8244824 L9.9997,13.7656588 L3.9997,13.7656588 L3.9997,14.8244824 Z M3.9997,16.9410706 L9.9997,16.9410706 L9.9997,15.8822471 L3.9997,15.8822471 L3.9997,16.9410706 Z" id="Fill-1"></path>
            <path d="M15,7.41176471 L17,7.41176471 L17,3.17647059 L15,3.17647059 L15,7.41176471 Z M14,8.47058824 L18,8.47058824 L18,2.11764706 L14,2.11764706 L14,8.47058824 Z" id="Fill-2"></path>
            <path d="M15,14.8235294 L17,14.8235294 L17,10.5882353 L15,10.5882353 L15,14.8235294 Z M14,15.8823529 L18,15.8823529 L18,9.52941176 L14,9.52941176 L14,15.8823529 Z" id="Fill-3"></path>
        </g>
    </g>
</svg>