<?xml version="1.0" encoding="UTF-8"?>
<svg width="24px" height="24px" viewBox="0 0 24 24" version="1.1" xmlns="http://www.w3.org/2000/svg" xmlns:xlink="http://www.w3.org/1999/xlink">
    <!-- Generator: Sketch 49.1 (51147) - http://www.bohemiancoding.com/sketch -->
    <title>Icons/24/Propiedades/ic_nave</title>
    <desc>Created with Sketch.</desc>
    <defs></defs>
    <g id="Icons/24/Propiedades/ic_nave" stroke="none" stroke-width="1" fill="none" fill-rule="evenodd">
        <g id="Page-1" transform="translate(2.000000, 4.000000)" fill="#FFFFFF">
            <path d="M10.0023158,0.0001 L0.000210526316,3.7341 L0.000210526316,15.0371 L7.89389474,15.0371 L12.1054737,15.0371 L20.0002105,15.0371 L20.0002105,3.7351 L10.0023158,0.0001 Z M1.05284211,4.4161 L10.0023158,1.0751 L18.9475789,4.4161 L18.9475789,5.5371 L1.05284211,5.5371 L1.05284211,4.4161 Z M1.05284211,6.5381 L18.9475789,6.5381 L18.9475789,14.0371 L12.1054737,14.0371 L12.1054737,8.0371 L7.89389474,8.0371 L7.89389474,14.0371 L1.05284211,14.0371 L1.05284211,6.5381 Z M8.94652632,14.0371 L11.0528421,14.0371 L11.0528421,9.0371 L8.94652632,9.0371 L8.94652632,14.0371 Z" id="Fill-1"></path>
            <path d="M14.7368421,11.0373 L16.8421053,11.0373 L16.8421053,9.0373 L14.7368421,9.0373 L14.7368421,11.0373 Z M13.6842105,12.0373 L17.8947368,12.0373 L17.8947368,8.0373 L13.6842105,8.0373 L13.6842105,12.0373 Z" id="Fill-2"></path>
            <path d="M3.15789474,11.0373 L5.26315789,11.0373 L5.26315789,9.0373 L3.15789474,9.0373 L3.15789474,11.0373 Z M2.10526316,12.0373 L6.31578947,12.0373 L6.31578947,8.0373 L2.10526316,8.0373 L2.10526316,12.0373 Z" id="Fill-3"></path>
        </g>
    </g>
</svg>