<svg xmlns="http://www.w3.org/2000/svg" width="24" height="24" viewBox="0 0 24 24">
  <path fill="#FFFFFF" d="M12.0277778,16.2014064 L9.11825984,16.2014064 L7.73284317,12.7850126 L6.22222222,12.7850126 L6.22222222,21.5939126 L3.05555556,21.5939126 L3.05555556,12.7850126 L2,12.7850126 L2,11.8089001 L9.38888889,11.8089001 L9.38888889,6.90445004 L8.53492651,6.90445004 L8.53492651,3 L16.5761846,3 L16.5761846,6.90445004 L15.7222222,6.90445004 L15.7222222,11.8089001 L22,11.8089001 L22,12.7850126 L20.9444444,12.7850126 L20.9444444,21.5939126 L19.8888889,21.5939126 L19.8888889,12.7850126 L17.3782679,12.7850126 L15.9928513,16.2014064 L13.0833333,16.2014064 L13.0833333,18.3457148 L17.0149807,20.1878253 L16.4294638,21 L12.5555556,19.1849423 L8.68164733,21 L8.09613045,20.1878253 L12.0277778,18.3457148 L12.0277778,16.2014064 Z M4.11111111,12.7850126 L4.11111111,20.6178001 L5.16666667,20.6178001 L5.16666667,12.7850126 L4.11111111,12.7850126 Z M10.4444444,11.8089001 L14.6666667,11.8089001 L14.6666667,6.90445004 L10.4444444,6.90445004 L10.4444444,11.8089001 Z M9.68164733,3.97611251 L9.68164733,5.92833753 L15.4294638,5.92833753 L15.4294638,3.97611251 L9.68164733,3.97611251 Z M15.3404821,15.2252939 L15.8682598,13.2730688 L9.24285127,13.2730688 L9.77062905,15.2252939 L15.3404821,15.2252939 Z"/>
</svg>
