<?xml version="1.0" encoding="UTF-8"?>
<svg width="24px" height="24px" viewBox="0 0 24 24" version="1.1" xmlns="http://www.w3.org/2000/svg" xmlns:xlink="http://www.w3.org/1999/xlink">
    <!-- Generator: Sketch 49.1 (51147) - http://www.bohemiancoding.com/sketch -->
    <title>Icons/24/Propiedades/ic_penthouse</title>
    <desc>Created with Sketch.</desc>
    <defs></defs>
    <g id="Icons/24/Propiedades/ic_penthouse" stroke="none" stroke-width="1" fill="none" fill-rule="evenodd">
        <g id="Page-1" transform="translate(2.000000, 2.000000)" fill="#FFFFFF">
            <path d="M10.5263158,4.21052632 L12.1052632,4.21052632 L12.1052632,2.63157895 L10.5263158,2.63157895 L10.5263158,4.21052632 Z M13.1578947,4.21052632 L15.2631579,4.21052632 L15.2631579,2.63157895 L13.1578947,2.63157895 L13.1578947,4.21052632 Z M18.9473684,5.26315789 L18.9473684,18.9473684 L1.05263158,18.9473684 L1.05263158,5.26315789 L3.15789474,5.26315789 L7.36842105,5.26315789 L10.5263158,5.26315789 L18.9473684,5.26315789 Z M4.21052632,4.21052632 L6.31578947,4.21052632 L6.31578947,3.15789474 L4.21052632,3.15789474 L4.21052632,4.21052632 Z M1.05263158,1.05263158 L9.47368421,1.05263158 L9.47368421,4.21052632 L7.36842105,4.21052632 L7.36842105,2.10526316 L3.15789474,2.10526316 L3.15789474,4.21052632 L1.05263158,4.21052632 L1.05263158,1.05263158 Z M0,0 L0,4.21052632 L0,5.26315789 L0,20 L20,20 L20,4.21052632 L16.3157895,4.21052632 L16.3157895,2.63157895 L17.8947368,2.63157895 C18.1852632,2.63157895 18.4210526,2.39578947 18.4210526,2.10526316 C18.4210526,1.81473684 18.1852632,1.57894737 17.8947368,1.57894737 L10.5263158,1.57894737 L10.5263158,0 L0,0 Z" id="Fill-1"></path>
            <path d="M13.6842105,16.8421053 L16.8421053,16.8421053 L16.8421053,12.6315789 L13.6842105,12.6315789 L13.6842105,16.8421053 Z M13.6842105,11.5789474 L16.8421053,11.5789474 L16.8421053,7.36842105 L13.6842105,7.36842105 L13.6842105,11.5789474 Z M17.8947368,12.6315789 L17.8947368,6.31578947 L12.6315789,6.31578947 L12.6315789,12.6315789 L12.6315789,17.8947368 L17.8947368,17.8947368 L17.8947368,12.6315789 Z" id="Fill-3"></path>
            <path d="M9.47368421,16.8421053 L10.5263158,16.8421053 L10.5263158,7.36842105 L9.47368421,7.36842105 L9.47368421,16.8421053 Z M8.42105263,17.8947368 L11.5789474,17.8947368 L11.5789474,6.31578947 L8.42105263,6.31578947 L8.42105263,17.8947368 Z" id="Fill-4"></path>
            <path d="M3.15789474,11.5789474 L6.31578947,11.5789474 L6.31578947,7.36842105 L3.15789474,7.36842105 L3.15789474,11.5789474 Z M3.15789474,16.8421053 L6.31578947,16.8421053 L6.31578947,12.6315789 L3.15789474,12.6315789 L3.15789474,16.8421053 Z M2.10526316,12.6315789 L2.10526316,17.8947368 L7.36842105,17.8947368 L7.36842105,12.6315789 L7.36842105,6.31578947 L2.10526316,6.31578947 L2.10526316,12.6315789 Z" id="Fill-5"></path>
        </g>
    </g>
</svg>