<?xml version="1.0" encoding="UTF-8"?>
<svg width="24px" height="24px" viewBox="0 0 24 24" version="1.1" xmlns="http://www.w3.org/2000/svg" xmlns:xlink="http://www.w3.org/1999/xlink">
    <!-- Generator: Sketch 49.1 (51147) - http://www.bohemiancoding.com/sketch -->
    <title>Icons/24/Propiedades/ic_villa</title>
    <desc>Created with Sketch.</desc>
    <defs></defs>
    <g id="Icons/24/Propiedades/ic_villa" stroke="none" stroke-width="1" fill="none" fill-rule="evenodd">
        <g id="Page-1" transform="translate(1.000000, 3.000000)" fill="#FFFFFF">
            <path d="M12,3.97452901 L15.48,1.22791433 L19,3.94892176 L19,16.1038298 L15,16.1038298 L15,11.9004471 L16.18,12.8346376 C16.392,13.0025073 16.707,12.9750032 16.884,12.7729905 C17.061,12.5719261 17.032,12.2731749 16.82,12.1053051 L15,10.666557 L15,10.6656086 L12,8.29456695 L12,3.97452901 Z M11,17.0522465 L11,14.6812048 C11,13.3714414 9.881,12.3101631 8.5,12.3101631 C7.119,12.3101631 6,13.3714414 6,14.6812048 L6,17.0522465 L3,17.0522465 L3,11.1161065 L4.621,9.83100195 L8.502,6.76287402 L8.919,7.09292302 L14,11.110416 L14,17.0522465 L11,17.0522465 Z M7,17.0522465 L7,14.6812048 C7,13.8959158 7.672,13.2585798 8.5,13.2585798 C9.328,13.2585798 10,13.8959158 10,14.6812048 L10,17.0522465 L7,17.0522465 Z M4,7.09387144 C4,6.83210844 4.224,6.61966311 4.5,6.61966311 C4.776,6.61966311 5,6.83210844 5,7.09387144 L5,8.29267011 L4.354,8.80576353 L4,9.08554645 L4,7.09387144 Z M4.5,5.67124643 C3.672,5.67124643 3,6.30858244 3,7.09387144 L3,9.87557754 L2,10.6656086 L2,10.6675055 L0.18,12.1053051 C-0.032,12.2731749 -0.061,12.5719261 0.116,12.7729905 C0.293,12.9750032 0.608,13.0025073 0.82,12.8346376 L2,11.9013955 L2,18.0006632 L6,18.0006632 L11,18.0006632 L15,18.0006632 L15,17.0522465 L20,17.0522465 L20,4.72093293 L20.462,5.07848601 C20.676,5.24351052 20.991,5.2141096 21.165,5.01020001 C21.34,4.80723885 21.308,4.5084876 21.094,4.34346309 L15.474,0.000663157895 L9.965,4.34630834 C9.753,4.51322968 9.724,4.81292935 9.9,5.01399368 C10.077,5.21600643 10.393,5.2425621 10.604,5.07564076 L11,4.76361168 L11,7.50358744 L9.788,6.54473819 L8.502,5.52803552 L8.502,5.52898393 L6,7.50548428 L6,7.09387144 C6,6.30858244 5.328,5.67124643 4.5,5.67124643 Z" id="Fill-1"></path>
            <path d="M16,8.50717895 L15,8.50717895 L15,5.19138947 C15,4.92991579 15.224,4.71770526 15.5,4.71770526 C15.776,4.71770526 16,4.92991579 16,5.19138947 L16,8.50717895 Z M17,5.19138947 C17,4.40696842 16.328,3.77033684 15.5,3.77033684 C14.672,3.77033684 14,4.40696842 14,5.19138947 L14,9.45454737 L17,9.45454737 L17,5.19138947 Z" id="Fill-3"></path>
        </g>
    </g>
</svg>